# xmcd
# Track frame offsets:
# 150
# 20437
# 49178
# 69868
# 82660
# 97387
# 123159
# 135099
# 156729
# 169507
# 186454
# 203446
# 219603
# 236211
# 252632
# 270306
# 288060
#
# Disc length: 4159 seconds
# Revision: 0
# Processed by: cddbd v1.5PL3 Copyright (c) Steve Scherf et al.
# Submitted via: VisiTrax 2.9.9.202 - For more info visit www.synapsa.com
#
DISCID=ec103d11
DTITLE=GTO - GTO Live
DYEAR=1900
DGENRE=Soul
TTITLE0=Lady Marmalade
TTITLE1=Proud Mary
TTITLE2=At Last
TTITLE3=I Feel Good
TTITLE4=Knock on Wood
TTITLE5=Summertime
TTITLE6=Unchain My Heart
TTITLE7=What A Wonderful World
TTITLE8=LaLa
TTITLE9=Barefootin'
TTITLE10=St. James Infirmary
TTITLE11=Play that Funky Music
TTITLE12=Try a Little Tenderness
TTITLE13=Mr.Pitiful
TTITLE14=Tell It Like It Is
TTITLE15=634-5789
TTITLE16=Mustang Sally
EXTD=From Skip
EXTT0=
EXTT1=
EXTT2=
EXTT3=
EXTT4=
EXTT5=
EXTT6=
EXTT7=
EXTT8=
EXTT9=
EXTT10=
EXTT11=
EXTT12=
EXTT13=
EXTT14=
EXTT15=
EXTT16=
PLAYORDER=
